<svg xmlns="http://www.w3.org/2000/svg" width="18" height="18" viewBox="0 0 18 18" fill="none">
  <path d="M16.866 2.5546C15.6335 5.62777 12.5444 9.80537 9.95937 11.8782L8.38277 13.1426C8.18269 13.2867 7.98262 13.4147 7.75853 13.5028C7.75853 13.3587 7.75053 13.1987 7.72652 13.0466C7.63849 12.3743 7.33437 11.7501 6.79816 11.2139C6.25396 10.6697 5.5897 10.3496 4.90944 10.2615C4.74938 10.2535 4.58932 10.2375 4.42926 10.2535C4.51729 10.0054 4.65335 9.77335 4.82141 9.58128L6.06989 8.00468C8.13467 5.41969 12.3283 2.31451 15.3934 1.09004C15.8656 0.913971 16.3218 1.04202 16.6099 1.33813C16.914 1.63425 17.0581 2.09042 16.866 2.5546Z" stroke="#161C2D" stroke-width="1.5" stroke-linecap="round" stroke-linejoin="round"/>
  <path d="M7.75852 13.5028C7.75852 14.3831 7.42239 15.2234 6.79015 15.8637C6.30196 16.3519 5.63771 16.688 4.84541 16.792L2.87665 17.0081C1.80424 17.1282 0.883893 16.2158 1.01194 15.1274L1.22802 13.1586C1.4201 11.406 2.88466 10.2855 4.43725 10.2535C4.59731 10.2455 4.76538 10.2535 4.91743 10.2615C5.59769 10.3496 6.26195 10.6617 6.80615 11.2139C7.34236 11.7501 7.64648 12.3743 7.73451 13.0466C7.74251 13.1987 7.75852 13.3507 7.75852 13.5028Z" stroke="#161C2D" stroke-width="1.5" stroke-linecap="round" stroke-linejoin="round"/>
  <path d="M10.8077 10.9818C10.8077 8.893 9.11101 7.19635 7.02222 7.19635" stroke="#161C2D" stroke-width="1.5" stroke-linecap="round" stroke-linejoin="round"/>
  <path d="M15.5134 9.58929L16.1057 10.1735C17.2981 11.366 17.2981 12.5424 16.1057 13.7349L13.7368 16.1038C12.5603 17.2802 11.3679 17.2802 10.1914 16.1038" stroke="#161C2D" stroke-width="1.5" stroke-linecap="round"/>
  <path d="M1.90022 7.8126C0.723771 6.62015 0.723771 5.4437 1.90022 4.25124L4.26913 1.88234C5.44557 0.705888 6.63803 0.705888 7.81448 1.88234L8.4067 2.47456" stroke="#161C2D" stroke-width="1.5" stroke-linecap="round"/>
  <path d="M8.4148 2.48257L5.45367 5.44371" stroke="#161C2D" stroke-width="1.5" stroke-linecap="round"/>
  <path d="M15.5135 9.58929L13.1446 11.9502" stroke="#161C2D" stroke-width="1.5" stroke-linecap="round"/>
</svg>